<svg xmlns="http://www.w3.org/2000/svg" viewBox="0 0 32 32" fill="none">
  <rect width="32" height="32" rx="8" fill="#45a243"/>
  <path d="M8 8h10a2 2 0 0 1 2 2v1h-2v-1H10v14h8v-1h2v1a2 2 0 0 1-2 2H10a2 2 0 0 1-2-2V10a2 2 0 0 1 2-2H8z" fill="white"/>
  <path d="M12 13h6M12 16h8M12 19h5" stroke="white" stroke-width="1.5" stroke-linecap="round"/>
  <circle cx="22" cy="13" r="3" fill="white" fill-opacity="0.9"/>
  <path d="M21 13l1 1 2-2" stroke="#45a243" stroke-width="1.2" stroke-linecap="round" stroke-linejoin="round"/>
</svg>
